<?xml version="1.0" encoding="UTF-8"?>
<svg id="Layer_1" data-name="Layer 1" xmlns="http://www.w3.org/2000/svg" viewBox="0 0 585.45 619.89">
  <defs>
    <style>
      .cls-1 {
        fill: #231f20;
      }

      .cls-2 {
        fill: #662f90;
      }

      .cls-3 {
        fill: #fff;
      }

      .cls-4 {
        fill: #f7ec13;
      }
    </style>
  </defs>
  <path class="cls-3" d="M292.73,619.89c-39.6,0-78.01-8.23-114.17-24.46-17.36-7.79-34.1-17.44-49.76-28.66-15.49-11.11-30.06-23.86-43.29-37.9-13.22-14.03-25.22-29.47-35.67-45.88-10.54-16.56-19.6-34.26-26.91-52.61C7.71,392.22,0,351.7,0,309.94s7.71-82.28,22.92-120.43c7.31-18.35,16.37-36.05,26.91-52.61,10.45-16.41,22.45-31.85,35.67-45.88,13.23-14.04,27.8-26.79,43.29-37.9,15.66-11.22,32.4-20.87,49.76-28.66C214.72,8.23,253.13,0,292.73,0s78.01,8.23,114.17,24.46c17.36,7.79,34.1,17.44,49.76,28.66,15.49,11.11,30.06,23.86,43.29,37.9,13.22,14.03,25.22,29.47,35.67,45.88,10.54,16.56,19.6,34.26,26.91,52.61,15.21,38.16,22.92,78.67,22.92,120.43s-7.71,82.28-22.92,120.43c-7.31,18.35-16.37,36.05-26.91,52.61-10.45,16.41-22.45,31.85-35.67,45.88-13.23,14.04-27.8,26.79-43.29,37.9-15.66,11.22-32.4,20.87-49.76,28.66-36.16,16.23-74.57,24.46-114.17,24.46Z"/>
  <ellipse class="cls-3" cx="292.73" cy="309.94" rx="281.49" ry="298.71"/>
  <g>
    <circle class="cls-3" cx="505.05" cy="63.01" r="33.41"/>
    <g>
      <path d="M292.73,11.21C137.26,11.21,11.23,144.95,11.23,309.93s126.03,298.72,281.49,298.72,281.49-133.74,281.49-298.72S448.19,11.21,292.73,11.21ZM292.73,578.58c-139.81,0-253.15-120.28-253.15-268.64S152.92,41.29,292.73,41.29s253.15,120.28,253.15,268.64-113.34,268.64-253.15,268.64Z"/>
      <path d="M329.57,359.5l-71.11-53.98c-.13-.1-.26-.19-.4-.27-.2-.13-20.02-12.71-18.72-38.57v-127.19c0-.63-.1-1.26-.31-1.85-.93-2.73-3.76-5.48-7.96-5.48-2.39,0-4.96.86-7.95,2.7l-51.84,33.56c-1.07.75-26.12,18.72-26.12,52.37v251.07c-.04,1.3.02,5.78,2.79,8.82,1.5,1.65,3.54,2.56,5.74,2.56,2.59,0,5.37-1.22,8.35-3.64l56.73-42.73c.37-.27,36.83-27.43,13.84-77.77-1.05-1.97-10.68-19.27-23.76-21.35-.25-.04-.51-.06-.76-.06-1.78,0-3.51.91-4.75,2.48-2.26,2.88-2.69,7.51-1.35,15.2.08.41,7.57,38.29-18.2,58.14v-190c0-.24-.02-.55-.05-.79-.09-.74-1.83-16.63,18.96-28.38v76.08c-.11,1.97-2.41,48.59,44.23,77.92.48.31,47.82,31.1,72.77,56.83.17.17.34.33.53.48.69.54,16.67,13.44,1.06,36.83-1.41,2.11-1.22,4.98.45,6.86,1,1.13,2.36,1.71,3.73,1.71.93,0,1.86-.27,2.69-.81l38.49-25.28c1.19-.78,2.03-2.04,2.31-3.5.26-1.28,5.71-31.66-39.42-61.94Z"/>
      <path d="M326.59,363.91l-71.11-53.98s-22.72-14.09-21.26-43.26v-127.19s-1.47-4.28-8.43,0l-51.68,33.45s-23.82,16.73-23.82,47.84v251.27s-.37,10.5,8.8,3.11l56.81-42.79s33.45-24.21,12.28-70.6c0,0-9.07-16.92-20.07-18.67,0,0-3.02,0-1.1,11.09,0,0,10.17,49.01-28.31,68.85v-199.54s-3.57-23.92,29.14-37.63v84.89s-2.75,44.93,41.78,72.93c0,0,48.02,31.12,73.67,57.57,0,0,20.89,16.34,2.2,44.34l38.49-25.28s5.5-27.62-37.39-56.4Z"/>
      <path class="cls-4" d="M150.29,220.78v251.27s-.37,10.5,8.8,3.11l56.81-42.79s33.45-24.21,12.28-70.6c0,0-9.07-16.92-20.07-18.67,0,0-3.02,0-1.1,11.09,0,0,10.17,49.01-28.31,68.85v-199.54s-3.57-23.92,29.14-37.63v84.89s-2.75,44.93,41.78,72.93c0,0,48.02,31.12,73.67,57.57,0,0,20.89,16.34,2.2,44.34l38.49-25.28s5.5-27.62-37.39-56.4l-71.11-53.98s-22.72-14.09-21.26-43.26v-127.19s-1.47-4.28-8.43,0l-51.68,33.45s-23.82,16.73-23.82,47.84Z"/>
      <path d="M436.17,384.89c-.05-3.56-2.1-20.55-34.39-45.11l-87.12-63.09-18.77-18.11,96.97-60.07c-1.52,8.97-5.56,21.76-16.28,28.31l-15.32,10.61c-.76.57-18.81,14.27-30.24,40.68-.6,1.37-.62,2.94-.08,4.34.37.94,2.56,5.66,9.82,5.66,2.9,0,6.33-.79,9.92-2.25,2.96-.99,72.5-24.81,81.23-78.2,1.27-3.93,7.91-27.31,0-64.53-.78-3.32-3.88-6.88-8.85-6.88-.69,0-1.45.07-2.28.23-.55.11-1.08.31-1.57.61l-142.64,85.3c-11.73,5.93-30.8,24.57-18.96,52.63.07.16.15.32.23.48.39.73,9.93,18.14,32.11,33.46l92.05,63.57c2.87,1.74,10.44,7.67,10.99,14.16.31,3.61-1.69,7.4-5.94,11.27l-25.75,17.74-38.49,25.28c-.5.33-.94.75-1.31,1.24l-17.48,23.3c-1.34,1.21-2.61,3.15-2.88,5.65-.23,2.11.17,5.35,3.43,8.8.88.94,3.01,2.67,6.8,2.67h0c2.88,0,6.23-1.02,9.94-3.02,4.14-1.78,52.31-22.65,77.38-40.96,4.05-2.83,39.36-28.31,37.49-53.76Z"/>
      <path class="cls-2" d="M431.05,385.11s.83-15.75-32.16-40.84l-87.42-63.3-24.19-23.34,111.61-69.14s.55,30.63-19.52,42.88l-15.17,10.5s-17.55,13.13-28.54,38.51c0,0,1.92,4.96,13.47.29,0,0,69.82-23.34,77.8-74.39,0,0,8.25-23.05,0-61.85,0,0-.82-3.5-5.22-2.63l-142.95,85.47s-29.41,14.88-16.49,45.51c0,0,9.06,16.82,30.46,31.6l91.78,63.4s26.48,15.85,5.59,34.52l-26.12,17.99-38.49,25.28-17.87,23.82s-3.57,2.33.55,6.71c0,0,2.47,3.21,11-1.46,0,0,51.13-21.88,76.7-40.55,0,0,37.11-25.96,35.19-49.01Z"/>
    </g>
    <path class="cls-3" d="M523.14,69.22c-1.26-2.03-2.35-3.65-3.3-4.89.7-.52,1.35-1.1,1.92-1.74,2.32-2.58,3.5-5.81,3.5-9.6,0-2.95-.76-5.64-2.25-7.99-1.57-2.47-3.7-4.22-6.36-5.21-2.27-.84-5.39-1.24-9.82-1.24h-19.56v44.44h16.15v-13.66c.48.64,1.33,1.81,2.76,3.95l6.51,9.71h19.07l-8.62-13.78Z"/>
    <path class="cls-1" d="M490.66,78.5v-35.46h15.07c3.79,0,6.54.32,8.26.96,1.72.64,3.09,1.77,4.12,3.4,1.03,1.63,1.55,3.49,1.55,5.59,0,2.66-.78,4.86-2.35,6.59-1.56,1.73-3.9,2.83-7.01,3.28,1.55.9,2.83,1.89,3.83,2.97,1.01,1.08,2.37,3,4.08,5.76l4.33,6.92h-8.56l-5.18-7.72c-1.84-2.76-3.1-4.49-3.77-5.21-.68-.72-1.39-1.21-2.15-1.48-.76-.27-1.96-.4-3.6-.4h-1.45v14.8h-7.16ZM497.81,58.04h5.3c3.43,0,5.58-.15,6.43-.44.85-.29,1.52-.79,2.01-1.5.48-.71.73-1.6.73-2.66,0-1.19-.32-2.16-.96-2.89-.64-.73-1.54-1.2-2.7-1.39-.58-.08-2.32-.12-5.22-.12h-5.59v9Z"/>
  </g>
</svg>